<?xml version="1.0" encoding="UTF-8"?>
<svg width="32px" height="32px" viewBox="0 0 32 32" version="1.1" xmlns="http://www.w3.org/2000/svg"
     xmlns:xlink="http://www.w3.org/1999/xlink">
    <!-- Generator: Sketch 51.3 (57544) - http://www.bohemiancoding.com/sketch -->
    <title>Flecha Izquierda</title>
    <desc>Created with Sketch.</desc>
    <defs>
        <path d="M7.00290088,6 C7.00498961,6.25862438 6.90736947,6.51790452 6.71004048,6.71523351 L1.7184322,11.7068418 C1.32790791,12.0973661 0.694742928,12.0973661 0.304218636,11.7068418 L0.293158207,11.6957814 C-0.097366085,11.3052571 -0.097366085,10.6720921 0.293158207,10.2815678 L4.57472601,6 L0.293158207,1.7184322 C-0.097366085,1.32790791 -0.097366085,0.694742928 0.293158207,0.304218636 L0.304218636,0.293158207 C0.694742928,-0.097366085 1.32790791,-0.097366085 1.7184322,0.293158207 L6.71004048,5.28476649 C6.90736947,5.48209548 7.00498961,5.74137562 7.00290088,6 Z"
              id="path-1"></path>
    </defs>
    <g id="Inicio" stroke="none" stroke-width="1" fill="none" fill-rule="evenodd">
        <g transform="translate(-160.000000, -304.000000)" id="Encabezado">
            <g>
                <g id="Carrusel" transform="translate(0.000000, 184.000000)">
                    <g id="Flecha-Izquierda" transform="translate(160.000000, 120.000000)">
                        <circle id="Oval-2" fill-opacity="0.24" fill="#FFFFFF" cx="16" cy="16" r="16"></circle>
                        <g id="Icono-/-16-/-Flecha-/-Izquierda-/-Blanco" transform="translate(8.000000, 8.000000)">
                            <g id="Group"
                               transform="translate(7.000000, 8.000000) scale(-1, 1) translate(-7.000000, -8.000000) translate(3.000000, 2.000000)">
                                <mask id="mask-2" fill="white">
                                    <use xlink:href="#path-1"></use>
                                </mask>
                                <use id="icono" fill="#50535A" xlink:href="#path-1"></use>
                                <g id="Color-/-Cuadrado-/-Blancos-/-B1" mask="url(#mask-2)" fill="#FFFFFF">
                                    <g transform="translate(-5.000000, -2.000000)" id="Rectangle-3">
                                        <rect x="0" y="0" width="16" height="16"></rect>
                                    </g>
                                </g>
                            </g>
                        </g>
                    </g>
                </g>
            </g>
        </g>
    </g>
</svg>