<?xml version="1.0" standalone="no"?><!DOCTYPE svg PUBLIC "-//W3C//DTD SVG 1.1//EN" "http://www.w3.org/Graphics/SVG/1.1/DTD/svg11.dtd"><svg class="icon" height="512" viewBox="0 0 1024 1024" version="1.1" xmlns="http://www.w3.org/2000/svg"><path d="M842 962H182c-33.12 0-60-26.88-60-60V122c0-33.12 26.88-60 60-60h480l240 240v600c0 33.12-26.88 60-60 60zM662 362c-33.12 0-60-26.88-60-60V122H242c-33.12 0-60 26.88-60 60v660c0 33.12 26.88 60 60 60h540c33.12 0 60-26.88 60-60V362H662zM242 662h540v60H242v-60z m0-180h540v60H242v-60z m0-180h240v60H242v-60z" fill="#069AF0" /></svg>